<?xml version="1.0" standalone="no"?>
<!DOCTYPE svg PUBLIC "-//W3C//DTD SVG 20010904//EN" "http://www.w3.org/TR/2001/REC-SVG-20010904/DTD/svg10.dtd">
<svg version="1.0" xmlns="http://www.w3.org/2000/svg"
     width="512.000000pt" height="512.000000pt" viewBox="0 0 512.000000 512.000000"
     preserveAspectRatio="xMidYMid meet">
    <g transform="translate(0.000000,512.000000) scale(0.100000,-0.100000)"
       fill="#000000" stroke="none">
        <path d="M2475 5109 c-278 -29 -495 -90 -729 -204 -537 -262 -919 -710 -1089
        -1275 -57 -189 -71 -293 -71 -530 0 -237 14 -341 71 -530 160 -529 502 -950
        973 -1198 574 -302 1257 -302 1831 0 471 248 813 669 973 1198 57 189 71 293
        71 530 0 237 -14 341 -71 530 -170 565 -552 1013 -1089 1275 -245 119 -468
        180 -755 204 -125 10 -164 10 -290 0z m350 -334 c347 -46 647 -185 910 -421
        180 -161 334 -382 424 -609 89 -225 125 -435 116 -680 -13 -368 -127 -697
        -341 -985 -99 -133 -307 -330 -444 -421 -229 -153 -496 -249 -775 -279 -166
        -18 -419 -8 -574 24 -359 73 -651 229 -914 488 -192 189 -323 401 -409 661
        -62 187 -83 322 -83 535 0 213 21 348 83 535 134 406 421 749 804 962 262
        145 486 208 803 227 90 5 307 -13 400 -37z"/>
        <path d="M2420 4115 c-188 -41 -361 -175 -448 -347 -48 -95 -65 -169 -65 -283
        0 -75 5 -107 27 -170 35 -97 92 -181 172 -255 59 -54 183 -120 249 -132 l40
        -7 3 -443 2 -443 160 0 160 0 2 443 3 443 40 7 c66 12 190 78 249 132 80 74
        137 158 172 255 22 63 27 95 27 170 0 114 -17 188 -65 283 -87 172 -260 306
        -448 347 -86 19 -194 19 -280 0z m245 -310 c84 -21 160 -90 190 -171 69 -185
        -93 -384 -285 -349 -201 36 -300 271 -180 427 72 93 172 127 275 93z"/>
    </g>
</svg>
